<?xml version="1.0" encoding="utf-8"?>
<!-- Generator: Adobe Illustrator 19.1.0, SVG Export Plug-In . SVG Version: 6.00 Build 0)  -->
<svg version="1.1" id="Layer_1" xmlns="http://www.w3.org/2000/svg" xmlns:xlink="http://www.w3.org/1999/xlink" x="0px" y="0px"
	 viewBox="0 0 181.3 32.7" style="enable-background:new 0 0 181.3 32.7;" xml:space="preserve">
<style type="text/css">
	.st0{fill:#303030;}
</style>
<g>
	<path d="M29.6,19.4l-1.1,2.5h-1.2l4.4-9.8h1.2l4.4,9.8H36L35,19.4H29.6z M32.3,13.3l-2.2,5h4.4L32.3,13.3z"/>
	<path d="M47.7,21.9l0-8.1l-3.6,7h-0.7l-3.6-7v8.1h-1.1V12h1.4l3.6,7.1l3.6-7.1h1.4v9.8H47.7z"/>
	<path d="M52.5,19.4l-1.1,2.5h-1.2l4.4-9.8h1.2l4.4,9.8H59l-1.1-2.5H52.5z M55.2,13.3l-2.2,5h4.4L55.2,13.3z"/>
	<path d="M63.8,13.1v8.7h-1.1v-8.7h-3.2V12H67v1.1H63.8z"/>
	<path d="M76.7,17.8c0,2.5-1.5,4.1-4.1,4.1c-2.6,0-4.1-1.5-4.1-4.1V12h1.1v5.8c0,1.9,1.1,3,3,3c1.9,0,3-1.1,3-3V12h1.1V17.8z"/>
	<path d="M83.8,18.7c-0.2,0-0.4,0-0.7,0h-2.6v3.1h-1.1V12h3.7c2.5,0,3.9,1.2,3.9,3.3c0,1.6-0.8,2.7-2.2,3.2l2.3,3.3h-1.3L83.8,18.7z
		 M83.1,17.7c1.8,0,2.8-0.8,2.8-2.3c0-1.5-1-2.2-2.8-2.2h-2.6v4.6H83.1z"/>
	<path d="M90.6,13.1v3.2h4.9v1.1h-4.9v3.4h5.7v1.1h-6.8V12h6.7v1.1H90.6z"/>
	<path d="M106.2,12c2.4,0,3.8,1.2,3.8,3.3c0,2.2-1.4,3.4-3.8,3.4h-2.6v3.1h-1.1V12H106.2z M103.6,17.7h2.5c1.8,0,2.8-0.8,2.8-2.3
		c0-1.5-1-2.2-2.8-2.2h-2.5V17.7z"/>
	<path d="M116.2,18.7c-0.2,0-0.4,0-0.7,0H113v3.1h-1.1V12h3.7c2.5,0,3.9,1.2,3.9,3.3c0,1.6-0.8,2.7-2.2,3.2l2.3,3.3h-1.3L116.2,18.7
		z M115.6,17.7c1.8,0,2.8-0.8,2.8-2.3c0-1.5-1-2.2-2.8-2.2H113v4.6H115.6z"/>
	<path d="M131.3,17c0,2.8-2.3,5-5.1,5c-2.9,0-5.1-2.2-5.1-5c0-2.8,2.3-4.9,5.1-4.9C129,12,131.3,14.2,131.3,17z M122.2,17
		c0,2.2,1.8,3.9,4,3.9c2.2,0,4-1.7,4-3.9c0-2.2-1.8-3.9-4-3.9C124,13.1,122.2,14.8,122.2,17z"/>
	<path d="M136.9,18.9c0,1.9-1,3-2.8,3c-1.1,0-2-0.5-2.7-1.4l0.6-0.9c0.6,0.7,1.4,1.1,2.1,1.1c1.1,0,1.7-0.6,1.7-1.9v-5.8h-3.5V12
		h4.6V18.9z"/>
	<path d="M140.7,13.1v3.2h4.9v1.1h-4.9v3.4h5.7v1.1h-6.8V12h6.7v1.1H140.7z"/>
	<path d="M156.5,13.5l-0.7,0.9c-0.8-0.8-1.8-1.2-2.9-1.2c-2.2,0-4,1.7-4,3.9c0,2.1,1.8,3.9,4,3.9c1.1,0,2.1-0.4,2.9-1.2l0.7,0.8
		c-1,0.9-2.3,1.5-3.6,1.5c-2.8,0-5.1-2.2-5.1-5c0-2.7,2.3-4.9,5.1-4.9C154.3,12,155.6,12.6,156.5,13.5z"/>
	<path d="M161.5,13.1v8.7h-1.1v-8.7h-3.2V12h7.5v1.1H161.5z"/>
	<path d="M172.4,12.9l-0.5,1.1c-0.9-0.6-1.9-0.8-2.7-0.8c-1.3,0-2.1,0.5-2.1,1.3c0,2.5,5.5,1.2,5.5,4.8c0,1.6-1.4,2.7-3.5,2.7
		c-1.4,0-2.8-0.6-3.8-1.5l0.5-1c0.9,0.9,2.2,1.4,3.3,1.4c1.4,0,2.3-0.6,2.3-1.5c0-2.6-5.5-1.2-5.5-4.7c0-1.5,1.4-2.5,3.4-2.5
		C170.4,12,171.6,12.4,172.4,12.9z"/>
</g>
<path class="st0" d="M17.5,14.3c-0.1-0.3-0.4-0.4-0.6-0.4c-0.2,0-0.4,0.1-0.5,0.3c-0.2,0.4-0.4,0.7-0.6,1.1c0-0.1,0-0.3,0-0.4
	c0-1.1-0.1-2.3-0.5-3.6c-0.3-1.1-0.8-2.2-1.4-3.3l0,0C13.5,7.3,13,6.5,12.3,6c-0.1-0.2-0.3-0.4-0.5-0.5c-0.2-0.2-0.6-0.1-0.8,0.1
	C11,5.8,11,5.9,11,6.1c0.8,2.2-0.9,4.2-2.4,5.9c-0.3,0.3-0.5,0.6-0.7,0.9c-1.5,1.9-2.3,3.6-2.3,5.3c-0.1-0.1-0.2-0.2-0.3-0.3
	c-0.1-0.1-0.2-0.1-0.3-0.1c-0.3,0-0.6,0.3-0.6,0.6c-0.2,2.2,0.4,4.3,1.8,6.1c0.2,0.2,0.4,0.4,0.6,0.7c0.9,1,2.2,1.8,3.6,2.1
	c0.3,0.1,0.6,0.1,1,0.1c0,0,0.1,0,0.1,0c0.2,0,0.4,0,0.6,0h0c2.3,0,4.6-1.4,5.8-3.6C19.7,20.7,18.4,16.9,17.5,14.3z M9.4,23.6
	c0.3,0.1,0.7-0.1,0.8-0.4c0.1-0.3,0-0.6-0.3-0.8c-0.8-0.6-0.3-1.8,0.4-3c0.1-0.1,0.1-0.2,0.2-0.3c0.2-0.4,0.4-0.8,0.7-1.2
	c0.2,0.6,0.6,1.1,0.9,1.5l0,0.1c1.1,1.4,1.8,2.6,0.6,3.6c-0.2,0.1-0.2,0.4-0.1,0.6c0.1,0.3,0.4,0.4,0.6,0.3c0,0,0,0,0.1,0
	c0.3,0,0.5-0.1,0.8-0.3c-0.1,0.6-0.5,1.2-0.9,1.7c-0.2,0.2-0.4,0.3-0.6,0.4l-0.1,0c-0.3,0.1-0.5,0.1-0.8,0.1l-0.1,0
	c-0.2,0-0.4-0.1-0.6-0.2c0-0.1-0.1-0.1-0.2-0.2c-0.9-0.5-1.6-1.3-1.9-2.1C9.1,23.5,9.2,23.5,9.4,23.6z M15.4,22.1
	c0-0.3-0.3-0.5-0.6-0.5c-0.1,0-0.1,0-0.2,0c0-0.3,0-0.5-0.1-0.8c-0.2-0.8-0.7-1.4-1.2-2c-0.6-0.8-1.2-1.5-1.1-2.5
	c0-0.1,0-0.3-0.1-0.4c-0.2-0.2-0.7-0.3-0.9,0c-1,1.2-3,3.7-3,5.7c-0.2-0.1-0.6,0-0.8,0.2c-0.1,0.1-0.2,0.3-0.2,0.5
	c0,0.7,0.2,1.4,0.5,2c-0.2-0.2-0.3-0.3-0.5-0.5c-1-1-1.6-2.5-1.7-4c0.2,0.1,0.3,0.3,0.5,0.4c0.3,0.2,0.8,0.2,1-0.1
	c0.1-0.2,0.1-0.4,0.1-0.6c-0.8-2.6,0.9-4.7,2.6-6.7c0.3-0.4,0.6-0.8,0.9-1.1c1-1.3,1.6-2.4,1.9-3.4c0,0,0.1,0.1,0.1,0.1
	c0.6,0.9,1,1.9,1.4,3c0.3,1,0.5,2.1,0.5,3.3c0,0.5,0,1-0.1,1.4c-0.1,0.5-0.1,1.1-0.1,1.6c0,0.2,0,0.3,0.1,0.5
	c0.2,0.2,0.6,0.2,0.8-0.1c0.7-0.4,1.2-1.2,1.6-1.9c0.7,2.1,1.2,4.4,0.3,6.6c-0.4,1-1.2,1.9-2.2,2.5C15.3,24.3,15.5,23.2,15.4,22.1z"
	/>
</svg>
